<svg width="16" height="17" viewBox="0 0 16 17" fill="none" xmlns="http://www.w3.org/2000/svg">
<path fill-rule="evenodd" clip-rule="evenodd" d="M9.59604 2.54347C7.97245 2.10843 6.3275 2.3632 4.97024 3.12893C4.72974 3.26462 4.42477 3.17965 4.28908 2.93914C4.1534 2.69864 4.23837 2.39367 4.47888 2.25798C6.05488 1.36884 7.96834 1.07205 9.85486 1.57754C13.678 2.60196 15.9469 6.53171 14.9225 10.3549C13.898 14.1781 9.96829 16.4469 6.14512 15.4225C2.32194 14.3981 0.0531035 10.4683 1.07752 6.64514C1.28036 5.88813 1.59754 5.19117 2.00582 4.56848C2.38849 3.98485 3.16034 3.93964 3.64917 4.3353L8.31455 8.11136C8.5292 8.28509 8.56237 8.59993 8.38864 8.81457C8.21491 9.02922 7.90007 9.06239 7.68542 8.88866L3.02004 5.1126C2.98282 5.08246 2.94092 5.07341 2.90767 5.07743C2.87739 5.08109 2.85688 5.09424 2.84209 5.1168C2.49142 5.65162 2.2184 6.25101 2.04345 6.90396C1.16197 10.1937 3.11423 13.5751 6.40394 14.4566C9.69365 15.338 13.0751 13.3858 13.9565 10.0961C14.838 6.80635 12.8857 3.42494 9.59604 2.54347Z" fill="#888888"/>
</svg>
