<svg width="16" height="16" viewBox="0 0 16 16" fill="none" xmlns="http://www.w3.org/2000/svg">
<path d="M8.36902 1.66262C8.27429 1.55901 8.14038 1.5 8 1.5C7.85962 1.5 7.72571 1.55901 7.63099 1.66262L4.96432 4.57928C4.77799 4.78308 4.79215 5.09935 4.99595 5.28568C5.19975 5.47201 5.51602 5.45785 5.70235 5.25405L7.5 3.28787V10.6667C7.5 10.9428 7.72386 11.1667 8 11.1667C8.27614 11.1667 8.5 10.9428 8.5 10.6667V3.28787L10.2977 5.25405C10.484 5.45785 10.8003 5.47201 11.0041 5.28568C11.2079 5.09935 11.222 4.78308 11.0357 4.57928L8.36902 1.66262Z" fill="#262626"/>
<path d="M2.5 10C2.5 9.72386 2.27614 9.5 2 9.5C1.72386 9.5 1.5 9.72386 1.5 10V10.0366C1.49999 10.9483 1.49998 11.6832 1.57768 12.2612C1.65836 12.8612 1.83096 13.3665 2.23223 13.7678C2.63351 14.169 3.13876 14.3416 3.73883 14.4223C4.31681 14.5 5.05169 14.5 5.96342 14.5H10.0366C10.9483 14.5 11.6832 14.5 12.2612 14.4223C12.8612 14.3416 13.3665 14.169 13.7678 13.7678C14.169 13.3665 14.3416 12.8612 14.4223 12.2612C14.5 11.6832 14.5 10.9483 14.5 10.0366V10C14.5 9.72386 14.2761 9.5 14 9.5C13.7239 9.5 13.5 9.72386 13.5 10C13.5 10.9569 13.4989 11.6244 13.4312 12.1279C13.3655 12.6171 13.2452 12.8762 13.0607 13.0607C12.8762 13.2452 12.6171 13.3655 12.1279 13.4312C11.6244 13.4989 10.9569 13.5 10 13.5H6C5.04306 13.5 4.37565 13.4989 3.87208 13.4312C3.3829 13.3655 3.12385 13.2452 2.93934 13.0607C2.75483 12.8762 2.63453 12.6171 2.56877 12.1279C2.50106 11.6244 2.5 10.9569 2.5 10Z" fill="#262626"/>
</svg>
