<svg width="16" height="17" viewBox="0 0 16 17" fill="none" xmlns="http://www.w3.org/2000/svg">
<path fill-rule="evenodd" clip-rule="evenodd" d="M4.1379 3.69224C2.73267 4.82253 1.83337 6.55623 1.83337 8.49998C1.83337 11.9057 4.59428 14.6666 8.00004 14.6666C9.09583 14.6666 10.1249 14.3808 11.0167 13.8797L7.08566 9.75035V11.5C7.08566 11.7761 6.8618 12 6.58566 12C6.30952 12 6.08566 11.7761 6.08566 11.5V8.49995C6.08566 8.29548 6.21016 8.11161 6.40002 8.03569C6.58987 7.95977 6.80682 8.0071 6.94781 8.1552L11.8569 13.312C13.2651 12.1818 14.1667 10.4462 14.1667 8.49998C14.1667 5.09422 11.4058 2.33331 8.00004 2.33331C6.90083 2.33331 5.8688 2.62091 4.97508 3.12496L8.75233 7.22044V5.50005C8.75233 5.22391 8.97619 5.00005 9.25233 5.00005C9.52847 5.00005 9.75233 5.22391 9.75233 5.50005V8.50005C9.75233 8.70597 9.62609 8.89082 9.4343 8.96576C9.24251 9.0407 9.02439 8.9904 8.88479 8.83904L4.1379 3.69224ZM0.833374 8.49998C0.833374 4.54194 4.042 1.33331 8.00004 1.33331C11.9581 1.33331 15.1667 4.54194 15.1667 8.49998C15.1667 12.458 11.9581 15.6666 8.00004 15.6666C4.042 15.6666 0.833374 12.458 0.833374 8.49998Z" fill="#888888"/>
</svg>
