<svg width="16" height="17" viewBox="0 0 16 17" fill="none" xmlns="http://www.w3.org/2000/svg">
<path fill-rule="evenodd" clip-rule="evenodd" d="M10.9293 1.84746L10.9736 1.85934C11.7066 2.05572 12.2874 2.21134 12.7442 2.37637C13.2115 2.54517 13.5926 2.73827 13.9065 3.03229C14.3636 3.46043 14.6835 4.01451 14.8257 4.62445C14.9234 5.04333 14.9001 5.46989 14.8126 5.95898C14.7271 6.43713 14.5715 7.01796 14.3751 7.7509L14.0181 9.08311C13.8217 9.816 13.6661 10.3968 13.5011 10.8536C13.3323 11.3209 13.1392 11.702 12.8452 12.0159C12.4307 12.4585 11.8981 12.7724 11.3111 12.921C11.1396 13.3142 10.8891 13.6702 10.5731 13.9662C10.2592 14.2602 9.87816 14.4533 9.41087 14.6221C8.95404 14.7871 8.37325 14.9427 7.64035 15.1391L7.59606 15.151C6.86311 15.3474 6.28229 15.503 5.80413 15.5885C5.31504 15.676 4.88848 15.6993 4.46961 15.6016C3.85966 15.4594 3.30558 15.1395 2.87745 14.6824C2.58342 14.3684 2.39032 13.9874 2.22152 13.5201C2.05649 13.0632 1.90087 12.4824 1.70449 11.7495L1.34752 10.4173C1.15113 9.68439 0.995504 9.10359 0.910004 8.62544C0.822547 8.13635 0.799248 7.7098 0.896916 7.29092C1.03914 6.68097 1.35903 6.1269 1.81615 5.69876C2.13007 5.40474 2.51113 5.21164 2.97843 5.04283C3.43526 4.87781 4.01606 4.72218 4.74898 4.5258L4.77114 4.51986C4.94745 4.47262 5.11427 4.428 5.27221 4.38627C5.53328 3.45352 5.76303 2.79415 6.21078 2.31609C6.63892 1.85897 7.19299 1.53907 7.80294 1.39685C8.22182 1.29919 8.64837 1.32249 9.13746 1.40994C9.6156 1.49544 10.1964 1.65107 10.9293 1.84746ZM4.97005 5.50184C4.24147 5.69712 3.71941 5.83841 3.31818 5.98335C2.91189 6.13011 2.67334 6.26603 2.49974 6.42862C2.18698 6.72156 1.9681 7.10066 1.87079 7.518C1.81678 7.74964 1.81835 8.02418 1.89439 8.44942C1.97153 8.88079 2.11574 9.42064 2.31939 10.1806L2.66448 11.4685C2.86812 12.2286 3.01315 12.7682 3.16203 13.1803C3.3088 13.5866 3.44472 13.8252 3.60731 13.9988C3.90025 14.3115 4.27935 14.5304 4.69668 14.6277C4.92832 14.6817 5.20287 14.6802 5.6281 14.6041C6.05947 14.527 6.59933 14.3828 7.35933 14.1791C8.11934 13.9755 8.65897 13.8304 9.07112 13.6816C9.4774 13.5348 9.71595 13.3989 9.88955 13.2363C9.98127 13.1504 10.0649 13.0571 10.1398 12.9576C10.0204 12.9408 9.8976 12.9193 9.7705 12.894C9.32263 12.805 8.78462 12.6608 8.12059 12.4829L8.08231 12.4726C7.3494 12.2763 6.76859 12.1206 6.31176 11.9556C5.84447 11.7868 5.46341 11.5937 5.14948 11.2997C4.69236 10.8715 4.37247 10.3175 4.23025 9.70753C4.13258 9.28865 4.15588 8.86209 4.24334 8.373C4.32884 7.89486 4.48447 7.31406 4.68086 6.58114L4.97005 5.50184ZM8.96144 2.39433C8.53621 2.31829 8.26166 2.31672 8.03002 2.37073C7.61268 2.46804 7.23358 2.68692 6.94064 2.99968C6.6499 3.3101 6.47099 3.78966 6.15984 4.9288C6.10927 5.11393 6.0558 5.31346 5.99781 5.5299L5.65272 6.8178C5.44908 7.57781 5.30486 8.11766 5.22772 8.54903C5.15168 8.97426 5.15012 9.24881 5.20413 9.48045C5.30143 9.89778 5.52031 10.2769 5.83308 10.5698C6.00668 10.7324 6.24523 10.8683 6.65151 11.0151C7.06366 11.164 7.60329 11.309 8.36329 11.5127C9.04691 11.6958 9.55354 11.8313 9.96552 11.9132C10.3757 11.9948 10.654 12.0148 10.8822 11.9867C10.9318 11.9806 10.9795 11.9721 11.0259 11.9612C11.4433 11.8639 11.8224 11.6451 12.1153 11.3323C12.2779 11.1587 12.4138 10.9201 12.5606 10.5139C12.7095 10.1017 12.8545 9.56209 13.0581 8.80208L13.4032 7.51418C13.6069 6.75417 13.7511 6.21432 13.8282 5.78295C13.9043 5.35772 13.9058 5.08317 13.8518 4.85153C13.7545 4.4342 13.5357 4.05509 13.2229 3.76216C13.0493 3.59956 12.8107 3.46365 12.4045 3.31688C11.9923 3.168 11.4527 3.02297 10.6927 2.81932C9.93266 2.61568 9.39281 2.47146 8.96144 2.39433Z" fill="#888888"/>
</svg>
