<svg width="14" height="15" viewBox="0 0 14 15" fill="none" xmlns="http://www.w3.org/2000/svg">
<path fill-rule="evenodd" clip-rule="evenodd" d="M1.89584 6.41692C1.89584 3.55916 4.17377 1.22917 7.00001 1.22917C9.82625 1.22917 12.1042 3.55916 12.1042 6.41692C12.1042 7.79656 11.711 9.27795 11.0159 10.5578C10.3217 11.836 9.30746 12.9467 8.03864 13.5398C7.37951 13.8479 6.62051 13.8479 5.96138 13.5398C4.69256 12.9467 3.67829 11.836 2.98408 10.5578C2.28903 9.27795 1.89584 7.79656 1.89584 6.41692ZM7.00001 2.10417C4.6716 2.10417 2.77084 4.0277 2.77084 6.41692C2.77084 7.64021 3.12238 8.97899 3.753 10.1402C4.38448 11.3029 5.27686 12.254 6.33189 12.7471C6.75621 12.9454 7.24381 12.9454 7.66813 12.7471C8.72317 12.254 9.61554 11.3029 10.247 10.1402C10.8776 8.97899 11.2292 7.64021 11.2292 6.41692C11.2292 4.0277 9.32843 2.10417 7.00001 2.10417ZM7.00001 5.02083C6.27514 5.02083 5.68751 5.60846 5.68751 6.33333C5.68751 7.05821 6.27514 7.64583 7.00001 7.64583C7.72488 7.64583 8.31251 7.05821 8.31251 6.33333C8.31251 5.60846 7.72488 5.02083 7.00001 5.02083ZM4.81251 6.33333C4.81251 5.12521 5.79189 4.14583 7.00001 4.14583C8.20813 4.14583 9.18751 5.12521 9.18751 6.33333C9.18751 7.54146 8.20813 8.52083 7.00001 8.52083C5.79189 8.52083 4.81251 7.54146 4.81251 6.33333Z" fill="#888888"/>
</svg>
