<svg width="16" height="17" viewBox="0 0 16 17" fill="none" xmlns="http://www.w3.org/2000/svg">
<path fill-rule="evenodd" clip-rule="evenodd" d="M3.33337 2.33331C2.50495 2.33331 1.83337 3.00489 1.83337 3.83331C1.83337 4.66174 2.50495 5.33331 3.33337 5.33331C4.1618 5.33331 4.83337 4.66174 4.83337 3.83331C4.83337 3.00489 4.1618 2.33331 3.33337 2.33331ZM0.833374 3.83331C0.833374 2.4526 1.95266 1.33331 3.33337 1.33331C4.71409 1.33331 5.83337 2.4526 5.83337 3.83331C5.83337 5.21403 4.71409 6.33331 3.33337 6.33331C1.95266 6.33331 0.833374 5.21403 0.833374 3.83331ZM6.83337 3.83331C6.83337 3.55717 7.05723 3.33331 7.33337 3.33331H10.7546C12.5888 3.33331 13.2863 5.72865 11.7389 6.71336L4.79806 11.1303C4.09469 11.5779 4.41175 12.6666 5.24545 12.6666H7.4596L7.31315 12.5202C7.11789 12.3249 7.11789 12.0084 7.31315 11.8131C7.50842 11.6178 7.825 11.6178 8.02026 11.8131L9.02026 12.8131C9.21552 13.0084 9.21552 13.3249 9.02026 13.5202L8.02026 14.5202C7.825 14.7155 7.50842 14.7155 7.31315 14.5202C7.11789 14.3249 7.11789 14.0084 7.31315 13.8131L7.4596 13.6666H5.24545C3.41129 13.6666 2.71378 11.2713 4.26118 10.2866L11.202 5.8697C11.9054 5.4221 11.5883 4.33331 10.7546 4.33331H7.33337C7.05723 4.33331 6.83337 4.10946 6.83337 3.83331ZM12.6667 11.6666C11.8383 11.6666 11.1667 12.3382 11.1667 13.1666C11.1667 13.9951 11.8383 14.6666 12.6667 14.6666C13.4951 14.6666 14.1667 13.9951 14.1667 13.1666C14.1667 12.3382 13.4951 11.6666 12.6667 11.6666ZM10.1667 13.1666C10.1667 11.7859 11.286 10.6666 12.6667 10.6666C14.0474 10.6666 15.1667 11.7859 15.1667 13.1666C15.1667 14.5474 14.0474 15.6666 12.6667 15.6666C11.286 15.6666 10.1667 14.5474 10.1667 13.1666Z" fill="#888888"/>
</svg>
