<svg width="16" height="17" viewBox="0 0 16 17" fill="none" xmlns="http://www.w3.org/2000/svg">
<path fill-rule="evenodd" clip-rule="evenodd" d="M7.29576 2.66669H8.70432C9.92949 2.66668 10.8999 2.66667 11.6594 2.76878C12.441 2.87386 13.0736 3.09527 13.5725 3.59418C14.0715 4.09309 14.2929 4.72572 14.398 5.50734C14.4989 6.25785 14.5 7.21436 14.5 8.41914C14.7293 8.60829 14.9113 8.85214 15.0272 9.13177C15.1073 9.32536 15.1384 9.52504 15.1529 9.73644C15.1667 9.93952 15.1667 10.1869 15.1667 10.4832V10.5169C15.1667 10.8132 15.1667 11.0605 15.1529 11.2636C15.1384 11.475 15.1073 11.6747 15.0272 11.8683C14.8411 12.3175 14.4842 12.6744 14.035 12.8605C13.8414 12.9407 13.6417 12.9718 13.4303 12.9862C13.3495 12.9917 13.2618 12.995 13.1667 12.997V13.8334C13.1667 14.1095 12.9428 14.3334 12.6667 14.3334C12.3906 14.3334 12.1667 14.1095 12.1667 13.8334V13H3.83337V13.8334C3.83337 14.1095 3.60952 14.3334 3.33337 14.3334C3.05723 14.3334 2.83337 14.1095 2.83337 13.8334V12.997C2.73832 12.995 2.65056 12.9917 2.5698 12.9862C2.3584 12.9718 2.15871 12.9407 1.96512 12.8605C1.5159 12.6744 1.159 12.3175 0.972929 11.8683C0.89274 11.6747 0.861645 11.475 0.847221 11.2636C0.833365 11.0605 0.833369 10.8132 0.833374 10.5169V10.4832C0.833369 10.1869 0.833365 9.93952 0.847221 9.73644C0.861645 9.52504 0.89274 9.32536 0.972929 9.13177C1.08875 8.85214 1.27077 8.60829 1.50004 8.41914C1.50004 7.21436 1.50123 6.25785 1.60213 5.50734C1.70722 4.72572 1.92863 4.09309 2.42754 3.59418C2.92645 3.09527 3.55908 2.87386 4.34069 2.76878C5.10017 2.66667 6.07059 2.66668 7.29576 2.66669ZM2.5003 8.01929C2.52333 8.01725 2.54649 8.01546 2.5698 8.01387C2.73764 8.00242 2.93573 8.00043 3.16671 8.00009L3.16671 7.46535C3.16669 6.86637 3.16667 6.36689 3.21998 5.97037C3.27625 5.55184 3.40003 5.17397 3.70368 4.87032C4.00733 4.56668 4.38519 4.4429 4.80372 4.38663C5.20024 4.33332 5.69972 4.33333 6.29871 4.33335H9.70138C10.3004 4.33333 10.7998 4.33332 11.1964 4.38663C11.6149 4.4429 11.9928 4.56668 12.2964 4.87033C12.6 5.17397 12.7238 5.55184 12.7801 5.97037C12.8334 6.36689 12.8334 6.86637 12.8334 7.46536V8.00009C13.0644 8.00043 13.2624 8.00242 13.4303 8.01387C13.4536 8.01546 13.4768 8.01725 13.4998 8.01929C13.4982 6.99605 13.4869 6.23599 13.4069 5.64059C13.3167 4.96986 13.1476 4.58343 12.8654 4.30129C12.5833 4.01915 12.1969 3.85004 11.5261 3.75986C10.841 3.66775 9.93792 3.66669 8.66671 3.66669H7.33337C6.06216 3.66669 5.15905 3.66775 4.47394 3.75986C3.80321 3.85004 3.41678 4.01915 3.13464 4.30129C2.8525 4.58343 2.68339 4.96986 2.59321 5.64059C2.51316 6.23599 2.50188 6.99605 2.5003 8.01929ZM11.8334 8.00002V7.50002C11.8334 6.85735 11.8323 6.42564 11.789 6.10362C11.7477 5.79597 11.6762 5.66431 11.5893 5.57743C11.5024 5.49055 11.3708 5.41907 11.0631 5.37771C10.7411 5.33442 10.3094 5.33335 9.66671 5.33335H8.50004V8.00002H11.8334ZM7.50004 8.00002V5.33335H6.33337C5.6907 5.33335 5.25899 5.33442 4.93697 5.37771C4.62933 5.41907 4.49766 5.49055 4.41079 5.57743C4.32391 5.66431 4.25243 5.79597 4.21106 6.10362C4.16777 6.42564 4.16671 6.85735 4.16671 7.50002V8.00002H7.50004ZM2.63787 9.01155C2.47738 9.0225 2.39924 9.04215 2.3478 9.06345C2.14362 9.14803 1.98139 9.31026 1.89681 9.51445C1.8755 9.56589 1.85585 9.64403 1.8449 9.80452C1.83365 9.96949 1.83337 10.1826 1.83337 10.5C1.83337 10.8175 1.83365 11.0306 1.8449 11.1955C1.85585 11.356 1.8755 11.4342 1.89681 11.4856C1.98139 11.6898 2.14361 11.852 2.3478 11.9366C2.39924 11.9579 2.47738 11.9775 2.63787 11.9885C2.80284 11.9998 3.01591 12 3.33337 12H12.6667C12.9842 12 13.1972 11.9998 13.3622 11.9885C13.5227 11.9775 13.6008 11.9579 13.6523 11.9366C13.8565 11.852 14.0187 11.6898 14.1033 11.4856C14.1246 11.4342 14.1442 11.356 14.1552 11.1955C14.1664 11.0306 14.1667 10.8175 14.1667 10.5C14.1667 10.1826 14.1664 9.96949 14.1552 9.80452C14.1442 9.64403 14.1246 9.56589 14.1033 9.51445C14.0187 9.31026 13.8565 9.14803 13.6523 9.06345C13.6008 9.04215 13.5227 9.0225 13.3622 9.01155C13.1972 9.00029 12.9842 9.00002 12.6667 9.00002H3.33337C3.01591 9.00002 2.80284 9.00029 2.63787 9.01155Z" fill="#888888"/>
</svg>
