
<svg width="16" height="16" viewBox="0 0 16 16" fill="none" xmlns="http://www.w3.org/2000/svg">
<g clip-path="url(#clip0_1_1076)">
<path fill-rule="evenodd" clip-rule="evenodd" d="M10.632 0.833337H12.0347C12.6337 0.833317 13.1331 0.833301 13.5297 0.886612C13.9482 0.942881 14.3261 1.06666 14.6297 1.37031C14.9334 1.67395 15.0571 2.05182 15.1134 2.47035C15.1667 2.86687 15.1667 3.36635 15.1667 3.96534V5.368C15.1667 5.96699 15.1667 6.46647 15.1134 6.86299C15.0571 7.28152 14.9334 7.65939 14.6297 7.96303C14.3261 8.26668 13.9482 8.39046 13.5297 8.44673C13.1331 8.50004 12.6337 8.50002 12.0347 8.50001L11.8333 8.5L11.8333 8.70133C11.8334 9.30032 11.8334 9.7998 11.7801 10.1963C11.7238 10.6149 11.6 10.9927 11.2964 11.2964C10.9927 11.6 10.6149 11.7238 10.1963 11.7801C9.79981 11.8334 9.30033 11.8334 8.70134 11.8333L8.50001 11.8333L8.50001 12.0347C8.50003 12.6337 8.50005 13.1331 8.44674 13.5297C8.39047 13.9482 8.26669 14.3261 7.96304 14.6297C7.65939 14.9333 7.28153 15.0571 6.863 15.1134C6.46648 15.1667 5.967 15.1667 5.36801 15.1667H3.96535C3.36636 15.1667 2.86688 15.1667 2.47036 15.1134C2.05183 15.0571 1.67396 14.9333 1.37032 14.6297C1.06667 14.3261 0.942889 13.9482 0.886619 13.5297C0.833308 13.1331 0.833325 12.6337 0.833344 12.0347V10.632C0.833325 10.033 0.833308 9.53354 0.886619 9.13702C0.942889 8.71849 1.06667 8.34062 1.37032 8.03698C1.67396 7.73333 2.05183 7.60955 2.47036 7.55328C2.86688 7.49997 3.36636 7.49998 3.96535 7.5L4.16668 7.5L4.16668 7.29867C4.16666 6.69969 4.16664 6.20021 4.21995 5.80368C4.27622 5.38516 4.4 5.00729 4.70365 4.70364C5.0073 4.39999 5.38516 4.27621 5.80369 4.21994C6.20021 4.16663 6.69969 4.16665 7.29868 4.16667L7.50001 4.16667L7.50001 3.96534C7.49999 3.36635 7.49997 2.86687 7.55329 2.47035C7.60956 2.05182 7.73334 1.67395 8.03698 1.37031C8.34063 1.06666 8.7185 0.942881 9.13703 0.886612C9.53355 0.833301 10.033 0.833317 10.632 0.833337ZM7.50001 5.16667H7.33334C6.69067 5.16667 6.25896 5.16773 5.93694 5.21103C5.6293 5.25239 5.49763 5.32387 5.41076 5.41075C5.32388 5.49763 5.2524 5.62929 5.21104 5.93693C5.16774 6.25896 5.16668 6.69066 5.16668 7.33334V8.66667C5.16668 9.30935 5.16774 9.74105 5.21104 10.0631C5.2524 10.3707 5.32388 10.5024 5.41076 10.5893C5.49763 10.6761 5.6293 10.7476 5.93694 10.789C6.25896 10.8323 6.69067 10.8333 7.33334 10.8333H8.66668C9.30935 10.8333 9.74106 10.8323 10.0631 10.789C10.3707 10.7476 10.5024 10.6761 10.5893 10.5893C10.6761 10.5024 10.7476 10.3707 10.789 10.0631C10.8323 9.74105 10.8333 9.30935 10.8333 8.66667V8.5L10.632 8.50001C10.033 8.50002 9.53355 8.50004 9.13703 8.44673C8.7185 8.39046 8.34063 8.26668 8.03698 7.96303C7.73334 7.65939 7.60956 7.28152 7.55329 6.86299C7.49997 6.46647 7.49999 5.96699 7.50001 5.368L7.50001 5.16667ZM4.16668 8.5H4.00001C3.35734 8.5 2.92563 8.50107 2.60361 8.54436C2.29597 8.58572 2.1643 8.6572 2.07742 8.74408C1.99055 8.83096 1.91906 8.96262 1.8777 9.27027C1.83441 9.59229 1.83335 10.024 1.83335 10.6667V12C1.83335 12.6427 1.83441 13.0744 1.8777 13.3964C1.91906 13.7041 1.99055 13.8357 2.07742 13.9226C2.1643 14.0095 2.29597 14.081 2.60361 14.1223C2.92563 14.1656 3.35734 14.1667 4.00001 14.1667H5.33335C5.97602 14.1667 6.40773 14.1656 6.72975 14.1223C7.03739 14.081 7.16906 14.0095 7.25593 13.9226C7.34281 13.8357 7.41429 13.7041 7.45566 13.3964C7.49895 13.0744 7.50001 12.6427 7.50001 12V11.8333L7.29868 11.8333C6.69969 11.8334 6.20021 11.8334 5.80369 11.7801C5.38516 11.7238 5.0073 11.6 4.70365 11.2964C4.4 10.9927 4.27622 10.6149 4.21995 10.1963C4.16664 9.7998 4.16666 9.30032 4.16668 8.70133L4.16668 8.5ZM9.27027 1.87769C8.96263 1.91906 8.83097 1.99054 8.74409 2.07742C8.65721 2.16429 8.58573 2.29596 8.54437 2.6036C8.50107 2.92562 8.50001 3.35733 8.50001 4V5.33334C8.50001 5.97601 8.50107 6.40772 8.54437 6.72974C8.58573 7.03738 8.65721 7.16905 8.74409 7.25593C8.83097 7.3428 8.96263 7.41429 9.27027 7.45565C9.5923 7.49894 10.024 7.5 10.6667 7.5H12C12.6427 7.5 13.0744 7.49894 13.3964 7.45565C13.7041 7.41429 13.8357 7.3428 13.9226 7.25593C14.0095 7.16905 14.081 7.03738 14.1223 6.72974C14.1656 6.40772 14.1667 5.97601 14.1667 5.33334V4C14.1667 3.35733 14.1656 2.92562 14.1223 2.6036C14.081 2.29596 14.0095 2.16429 13.9226 2.07742C13.8357 1.99054 13.7041 1.91906 13.3964 1.87769C13.0744 1.8344 12.6427 1.83334 12 1.83334H10.6667C10.024 1.83334 9.5923 1.8344 9.27027 1.87769Z" fill="#888888"/>
</g>
<defs>
<clipPath id="clip0_1_1076">
<rect width="16" height="16" rx="3.33333" fill="white"/>
</clipPath>
</defs>
</svg>
