<svg width="16" height="17" viewBox="0 0 16 17" fill="none" xmlns="http://www.w3.org/2000/svg">
<path d="M2.50004 2.5C2.50004 2.22386 2.7239 2 3.00004 2H13C13.2762 2 13.5 2.22386 13.5 2.5C13.5 2.77614 13.2762 3 13 3L3.00004 3C2.7239 3 2.50004 2.77614 2.50004 2.5Z" fill="#888888"/>
<path fill-rule="evenodd" clip-rule="evenodd" d="M12.9279 4.07768C13.5279 4.15836 14.0332 4.33096 14.4345 4.73223C14.8358 5.13351 15.0083 5.63876 15.089 6.23883C15.1667 6.81681 15.1667 7.55169 15.1667 8.46342V8.53658C15.1667 9.44831 15.1667 10.1832 15.089 10.7612C15.0083 11.3612 14.8358 11.8665 14.4345 12.2678C14.0332 12.669 13.5279 12.8416 12.9279 12.9223C12.3499 13 11.615 13 10.7033 13H5.2968C4.38507 13 3.65019 13 3.07221 12.9223C2.47214 12.8416 1.96689 12.669 1.56561 12.2678C1.16433 11.8665 0.991735 11.3612 0.911057 10.7612C0.83335 10.1832 0.833361 9.44832 0.833374 8.53659V8.46342C0.833361 7.5517 0.83335 6.81681 0.911057 6.23883C0.991735 5.63876 1.16433 5.13351 1.56561 4.73223C1.96689 4.33096 2.47214 4.15836 3.07221 4.07768C3.65019 3.99998 4.38506 3.99999 5.29679 4L10.7033 4C11.615 3.99999 12.3499 3.99997 12.9279 4.07768ZM12.7946 5.06876C12.2911 5.00106 11.6237 5 10.6667 5H5.33337C4.37643 5 3.70902 5.00106 3.20546 5.06877C2.71627 5.13453 2.45722 5.25483 2.27271 5.43934C2.08821 5.62385 1.96791 5.8829 1.90214 6.37208C1.83444 6.87565 1.83338 7.54306 1.83338 8.5C1.83338 9.45694 1.83444 10.1244 1.90214 10.6279C1.96791 11.1171 2.08821 11.3762 2.27272 11.5607C2.45722 11.7452 2.71627 11.8655 3.20546 11.9312C3.70902 11.9989 4.37643 12 5.33338 12H10.6667C11.6237 12 12.2911 11.9989 12.7946 11.9312C13.2838 11.8655 13.5429 11.7452 13.7274 11.5607C13.9119 11.3762 14.0322 11.1171 14.0979 10.6279C14.1656 10.1244 14.1667 9.45694 14.1667 8.5C14.1667 7.54306 14.1656 6.87565 14.0979 6.37208C14.0322 5.8829 13.9119 5.62385 13.7274 5.43934C13.5429 5.25483 13.2838 5.13453 12.7946 5.06876Z" fill="#888888"/>
<path d="M3.00004 15C2.7239 15 2.50004 14.7761 2.50004 14.5C2.50004 14.2239 2.7239 14 3.00004 14H13C13.2762 14 13.5 14.2239 13.5 14.5C13.5 14.7761 13.2762 15 13 15H3.00004Z" fill="#888888"/>
</svg>
