<svg width="16" height="16" viewBox="0 0 16 16" fill="none" xmlns="http://www.w3.org/2000/svg">
<path fill-rule="evenodd" clip-rule="evenodd" d="M10.8333 2.5V3.62635L12.1667 4.69302V2.5H10.8333ZM13.1667 5.49302V2.33333C13.1667 1.8731 12.7936 1.5 12.3333 1.5H10.6667C10.2064 1.5 9.83333 1.8731 9.83333 2.33333V2.82635L9.56174 2.60908C8.64869 1.87864 7.35131 1.87864 6.43826 2.60908L1.02098 6.9429C0.805353 7.1154 0.770392 7.43005 0.942897 7.64568C1.1154 7.86131 1.43005 7.89627 1.64568 7.72377L2.16666 7.30698V14.1667H1.33333C1.05719 14.1667 0.833331 14.3905 0.833331 14.6667C0.833331 14.9428 1.05719 15.1667 1.33333 15.1667H14.6667C14.9428 15.1667 15.1667 14.9428 15.1667 14.6667C15.1667 14.3905 14.9428 14.1667 14.6667 14.1667H13.8333V7.30698L14.3543 7.72377C14.5699 7.89627 14.8846 7.86131 15.0571 7.64568C15.2296 7.43005 15.1946 7.1154 14.979 6.9429L13.1667 5.49302ZM12.8333 6.50698L8.93704 3.38995C8.38921 2.95168 7.61078 2.95168 7.06296 3.38995L3.16666 6.50698V14.1667H5.5L5.5 11.3004C5.49997 10.8572 5.49995 10.4753 5.54107 10.1694C5.58513 9.84168 5.68451 9.5275 5.93934 9.27267C6.19417 9.01784 6.50834 8.91847 6.8361 8.8744C7.14193 8.83329 7.52384 8.83331 7.96709 8.83333H8.03291C8.47616 8.83331 8.85806 8.83329 9.16389 8.8744C9.49165 8.91847 9.80583 9.01784 10.0607 9.27267C10.3155 9.5275 10.4149 9.84168 10.4589 10.1694C10.5 10.4753 10.5 10.8572 10.5 11.3004L10.5 14.1667H12.8333V6.50698ZM9.5 14.1667V11.3333C9.5 10.8478 9.49894 10.5339 9.46785 10.3027C9.43869 10.0858 9.39161 10.0178 9.35355 9.97978C9.31549 9.94172 9.24752 9.89464 9.03065 9.86549C8.79939 9.8344 8.48554 9.83333 8 9.83333C7.51446 9.83333 7.2006 9.8344 6.96935 9.86549C6.75248 9.89464 6.68451 9.94172 6.64644 9.97978C6.60838 10.0178 6.56131 10.0858 6.53215 10.3027C6.50106 10.5339 6.5 10.8478 6.5 11.3333V14.1667H9.5ZM8 5.5C7.53976 5.5 7.16667 5.8731 7.16667 6.33333C7.16667 6.79357 7.53976 7.16667 8 7.16667C8.46024 7.16667 8.83333 6.79357 8.83333 6.33333C8.83333 5.8731 8.46024 5.5 8 5.5ZM6.16667 6.33333C6.16667 5.32081 6.98748 4.5 8 4.5C9.01252 4.5 9.83333 5.32081 9.83333 6.33333C9.83333 7.34586 9.01252 8.16667 8 8.16667C6.98748 8.16667 6.16667 7.34586 6.16667 6.33333Z" fill="#888888"/>
</svg>
